<mxfile host="Electron" agent="Mozilla/5.0 (Windows NT 10.0; Win64; x64) AppleWebKit/537.36 (KHTML, like Gecko) draw.io/26.0.7 Chrome/128.0.6613.186 Electron/32.2.5 Safari/537.36" version="26.0.7">
  <diagram name="Page-1" id="c4acf3e9-155e-7222-9cf6-157b1a14988f">
    <mxGraphModel dx="915" dy="823" grid="1" gridSize="10" guides="1" tooltips="1" connect="1" arrows="1" fold="1" page="1" pageScale="1" pageWidth="850" pageHeight="1100" background="none" math="0" shadow="0">
      <root>
        <mxCell id="0" />
        <mxCell id="1" parent="0" />
        <mxCell id="4cYH0kskli7POFGjwZM7-1" value="System urlopów" style="shape=umlFrame;whiteSpace=wrap;html=1;rounded=0;shadow=0;comic=0;labelBackgroundColor=none;strokeWidth=1;fontFamily=Verdana;fontSize=10;align=center;width=170;height=30;" vertex="1" parent="1">
          <mxGeometry x="70" y="50" width="710" height="720" as="geometry" />
        </mxCell>
        <mxCell id="4cYH0kskli7POFGjwZM7-2" value="Pracownik" style="shape=umlActor;verticalLabelPosition=bottom;verticalAlign=top;html=1;" vertex="1" parent="1">
          <mxGeometry x="800" y="400" width="30" height="60" as="geometry" />
        </mxCell>
        <mxCell id="4cYH0kskli7POFGjwZM7-5" value="" style="endArrow=block;dashed=1;endFill=0;endSize=12;html=1;rounded=0;exitX=0.5;exitY=0;exitDx=0;exitDy=0;" edge="1" parent="1">
          <mxGeometry width="160" relative="1" as="geometry">
            <mxPoint x="340" y="270" as="sourcePoint" />
            <mxPoint x="340" y="270" as="targetPoint" />
          </mxGeometry>
        </mxCell>
        <mxCell id="4cYH0kskli7POFGjwZM7-8" value="Stwórz urlop" style="ellipse;whiteSpace=wrap;html=1;" vertex="1" parent="1">
          <mxGeometry x="365" y="210" width="120" height="80" as="geometry" />
        </mxCell>
        <mxCell id="4cYH0kskli7POFGjwZM7-17" value="Podaj okres trwania urlopu" style="ellipse;whiteSpace=wrap;html=1;" vertex="1" parent="1">
          <mxGeometry x="140" y="110" width="120" height="80" as="geometry" />
        </mxCell>
        <mxCell id="4cYH0kskli7POFGjwZM7-34" value="" style="endArrow=none;html=1;rounded=0;entryX=0.5;entryY=0.5;entryDx=0;entryDy=0;entryPerimeter=0;exitX=0;exitY=0.5;exitDx=0;exitDy=0;" edge="1" parent="1" source="4cYH0kskli7POFGjwZM7-8" target="4cYH0kskli7POFGjwZM7-33">
          <mxGeometry width="50" height="50" relative="1" as="geometry">
            <mxPoint x="360" y="110" as="sourcePoint" />
            <mxPoint x="45" y="260" as="targetPoint" />
          </mxGeometry>
        </mxCell>
        <mxCell id="4cYH0kskli7POFGjwZM7-33" value="HR" style="shape=umlActor;verticalLabelPosition=bottom;verticalAlign=top;html=1;" vertex="1" parent="1">
          <mxGeometry x="10" y="400" width="30" height="60" as="geometry" />
        </mxCell>
        <mxCell id="4cYH0kskli7POFGjwZM7-38" value="" style="endArrow=block;dashed=1;endFill=0;endSize=12;html=1;rounded=0;entryX=1;entryY=0.5;entryDx=0;entryDy=0;exitX=0;exitY=0;exitDx=0;exitDy=0;" edge="1" parent="1" source="4cYH0kskli7POFGjwZM7-8" target="4cYH0kskli7POFGjwZM7-17">
          <mxGeometry width="160" relative="1" as="geometry">
            <mxPoint x="388" y="232" as="sourcePoint" />
            <mxPoint x="322" y="168" as="targetPoint" />
          </mxGeometry>
        </mxCell>
        <mxCell id="4cYH0kskli7POFGjwZM7-39" value="&amp;lt;&amp;lt;Include&amp;gt;&amp;gt;" style="text;align=center;fontStyle=0;verticalAlign=middle;spacingLeft=3;spacingRight=3;strokeColor=none;rotatable=0;points=[[0,0.5],[1,0.5]];portConstraint=eastwest;html=1;" vertex="1" parent="1">
          <mxGeometry x="280" y="137" width="80" height="26" as="geometry" />
        </mxCell>
        <mxCell id="4cYH0kskli7POFGjwZM7-40" value="Podaj typ urlopu" style="ellipse;whiteSpace=wrap;html=1;" vertex="1" parent="1">
          <mxGeometry x="365" y="57" width="120" height="80" as="geometry" />
        </mxCell>
        <mxCell id="4cYH0kskli7POFGjwZM7-41" value="" style="endArrow=block;dashed=1;endFill=0;endSize=12;html=1;rounded=0;entryX=0.5;entryY=1;entryDx=0;entryDy=0;exitX=0.5;exitY=0;exitDx=0;exitDy=0;" edge="1" parent="1" source="4cYH0kskli7POFGjwZM7-8" target="4cYH0kskli7POFGjwZM7-40">
          <mxGeometry width="160" relative="1" as="geometry">
            <mxPoint x="430" y="220" as="sourcePoint" />
            <mxPoint x="430" y="150" as="targetPoint" />
          </mxGeometry>
        </mxCell>
        <mxCell id="4cYH0kskli7POFGjwZM7-42" value="&amp;lt;&amp;lt;Include&amp;gt;&amp;gt;" style="text;align=center;fontStyle=0;verticalAlign=middle;spacingLeft=3;spacingRight=3;strokeColor=none;rotatable=0;points=[[0,0.5],[1,0.5]];portConstraint=eastwest;html=1;" vertex="1" parent="1">
          <mxGeometry x="520" y="180" width="80" height="26" as="geometry" />
        </mxCell>
        <mxCell id="4cYH0kskli7POFGjwZM7-43" value="Sprawdź dostępne dni urlopowe" style="ellipse;whiteSpace=wrap;html=1;" vertex="1" parent="1">
          <mxGeometry x="580" y="110" width="120" height="80" as="geometry" />
        </mxCell>
        <mxCell id="4cYH0kskli7POFGjwZM7-44" value="" style="endArrow=block;dashed=1;endFill=0;endSize=12;html=1;rounded=0;entryX=0;entryY=0.5;entryDx=0;entryDy=0;exitX=1;exitY=0;exitDx=0;exitDy=0;" edge="1" parent="1" source="4cYH0kskli7POFGjwZM7-8" target="4cYH0kskli7POFGjwZM7-43">
          <mxGeometry width="160" relative="1" as="geometry">
            <mxPoint x="477" y="232" as="sourcePoint" />
            <mxPoint x="568" y="168" as="targetPoint" />
          </mxGeometry>
        </mxCell>
        <mxCell id="4cYH0kskli7POFGjwZM7-45" value="&amp;lt;&amp;lt;Include&amp;gt;&amp;gt;" style="text;align=center;fontStyle=0;verticalAlign=middle;spacingLeft=3;spacingRight=3;strokeColor=none;rotatable=0;points=[[0,0.5],[1,0.5]];portConstraint=eastwest;html=1;" vertex="1" parent="1">
          <mxGeometry x="430" y="144" width="80" height="26" as="geometry" />
        </mxCell>
        <mxCell id="4cYH0kskli7POFGjwZM7-47" value="Zatwierdź urlop" style="ellipse;whiteSpace=wrap;html=1;" vertex="1" parent="1">
          <mxGeometry x="220" y="460" width="120" height="80" as="geometry" />
        </mxCell>
        <mxCell id="4cYH0kskli7POFGjwZM7-50" value="Przeglądaj stworzone urlopy" style="ellipse;whiteSpace=wrap;html=1;" vertex="1" parent="1">
          <mxGeometry x="365" y="390" width="120" height="80" as="geometry" />
        </mxCell>
        <mxCell id="4cYH0kskli7POFGjwZM7-56" value="" style="endArrow=none;html=1;rounded=0;entryX=0.5;entryY=0.5;entryDx=0;entryDy=0;entryPerimeter=0;exitX=0;exitY=0.5;exitDx=0;exitDy=0;" edge="1" parent="1" source="4cYH0kskli7POFGjwZM7-50" target="4cYH0kskli7POFGjwZM7-33">
          <mxGeometry width="50" height="50" relative="1" as="geometry">
            <mxPoint x="388" y="672" as="sourcePoint" />
            <mxPoint x="45" y="380" as="targetPoint" />
          </mxGeometry>
        </mxCell>
        <mxCell id="4cYH0kskli7POFGjwZM7-57" value="" style="endArrow=none;html=1;rounded=0;entryX=0.5;entryY=0.5;entryDx=0;entryDy=0;entryPerimeter=0;exitX=1;exitY=0.5;exitDx=0;exitDy=0;" edge="1" parent="1" source="4cYH0kskli7POFGjwZM7-8" target="4cYH0kskli7POFGjwZM7-2">
          <mxGeometry width="50" height="50" relative="1" as="geometry">
            <mxPoint x="375" y="260" as="sourcePoint" />
            <mxPoint x="45" y="380" as="targetPoint" />
          </mxGeometry>
        </mxCell>
        <mxCell id="4cYH0kskli7POFGjwZM7-58" value="" style="endArrow=none;html=1;rounded=0;entryX=0.5;entryY=0.5;entryDx=0;entryDy=0;entryPerimeter=0;exitX=1;exitY=0.5;exitDx=0;exitDy=0;" edge="1" parent="1" source="4cYH0kskli7POFGjwZM7-50" target="4cYH0kskli7POFGjwZM7-2">
          <mxGeometry width="50" height="50" relative="1" as="geometry">
            <mxPoint x="495" y="260" as="sourcePoint" />
            <mxPoint x="835" y="410" as="targetPoint" />
          </mxGeometry>
        </mxCell>
        <mxCell id="4cYH0kskli7POFGjwZM7-61" value="Usuń urlop" style="ellipse;whiteSpace=wrap;html=1;" vertex="1" parent="1">
          <mxGeometry x="520" y="500" width="120" height="80" as="geometry" />
        </mxCell>
        <mxCell id="4cYH0kskli7POFGjwZM7-66" value="Sprawdź status urlopu" style="ellipse;whiteSpace=wrap;html=1;" vertex="1" parent="1">
          <mxGeometry x="365" y="670" width="120" height="80" as="geometry" />
        </mxCell>
        <mxCell id="4cYH0kskli7POFGjwZM7-68" value="" style="endArrow=none;html=1;rounded=0;entryX=0.5;entryY=0.5;entryDx=0;entryDy=0;entryPerimeter=0;exitX=1;exitY=0.5;exitDx=0;exitDy=0;" edge="1" parent="1" source="4cYH0kskli7POFGjwZM7-66" target="4cYH0kskli7POFGjwZM7-2">
          <mxGeometry width="50" height="50" relative="1" as="geometry">
            <mxPoint x="495" y="510" as="sourcePoint" />
            <mxPoint x="835" y="380" as="targetPoint" />
          </mxGeometry>
        </mxCell>
        <mxCell id="4cYH0kskli7POFGjwZM7-69" value="" style="endArrow=block;dashed=1;endFill=0;endSize=12;html=1;rounded=0;entryX=0.5;entryY=1;entryDx=0;entryDy=0;exitX=0.5;exitY=0;exitDx=0;exitDy=0;" edge="1" parent="1" source="4cYH0kskli7POFGjwZM7-66" target="4cYH0kskli7POFGjwZM7-50">
          <mxGeometry width="160" relative="1" as="geometry">
            <mxPoint x="424" y="540" as="sourcePoint" />
            <mxPoint x="424" y="590" as="targetPoint" />
          </mxGeometry>
        </mxCell>
        <mxCell id="4cYH0kskli7POFGjwZM7-76" value="" style="endArrow=block;dashed=1;endFill=0;endSize=12;html=1;rounded=0;entryX=0.5;entryY=0;entryDx=0;entryDy=0;exitX=0.5;exitY=1;exitDx=0;exitDy=0;" edge="1" parent="1" source="4cYH0kskli7POFGjwZM7-8" target="4cYH0kskli7POFGjwZM7-50">
          <mxGeometry width="160" relative="1" as="geometry">
            <mxPoint x="449.16" y="398" as="sourcePoint" />
            <mxPoint x="420.00000000000017" y="290" as="targetPoint" />
          </mxGeometry>
        </mxCell>
        <mxCell id="4cYH0kskli7POFGjwZM7-77" value="" style="endArrow=none;html=1;rounded=0;entryX=0.5;entryY=0.5;entryDx=0;entryDy=0;entryPerimeter=0;exitX=0;exitY=0.5;exitDx=0;exitDy=0;" edge="1" parent="1" source="4cYH0kskli7POFGjwZM7-47" target="4cYH0kskli7POFGjwZM7-33">
          <mxGeometry width="50" height="50" relative="1" as="geometry">
            <mxPoint x="170" y="610" as="sourcePoint" />
            <mxPoint x="35" y="440" as="targetPoint" />
          </mxGeometry>
        </mxCell>
        <mxCell id="4cYH0kskli7POFGjwZM7-79" value="&amp;lt;&amp;lt;Extend&amp;gt;&amp;gt;" style="text;align=center;fontStyle=0;verticalAlign=middle;spacingLeft=3;spacingRight=3;strokeColor=none;rotatable=0;points=[[0,0.5],[1,0.5]];portConstraint=eastwest;html=1;" vertex="1" parent="1">
          <mxGeometry x="425" y="350" width="80" height="26" as="geometry" />
        </mxCell>
        <mxCell id="4cYH0kskli7POFGjwZM7-81" value="" style="endArrow=block;dashed=1;endFill=0;endSize=12;html=1;rounded=0;entryX=1;entryY=1;entryDx=0;entryDy=0;exitX=0;exitY=0;exitDx=0;exitDy=0;" edge="1" parent="1" source="4cYH0kskli7POFGjwZM7-61" target="4cYH0kskli7POFGjwZM7-50">
          <mxGeometry width="160" relative="1" as="geometry">
            <mxPoint x="480" y="500" as="sourcePoint" />
            <mxPoint x="480" y="600" as="targetPoint" />
          </mxGeometry>
        </mxCell>
        <mxCell id="4cYH0kskli7POFGjwZM7-82" value="" style="endArrow=none;html=1;rounded=0;entryX=0.5;entryY=0.5;entryDx=0;entryDy=0;entryPerimeter=0;exitX=0;exitY=0.5;exitDx=0;exitDy=0;" edge="1" parent="1" source="4cYH0kskli7POFGjwZM7-66" target="4cYH0kskli7POFGjwZM7-33">
          <mxGeometry width="50" height="50" relative="1" as="geometry">
            <mxPoint x="190" y="530" as="sourcePoint" />
            <mxPoint x="35" y="440" as="targetPoint" />
          </mxGeometry>
        </mxCell>
        <mxCell id="4cYH0kskli7POFGjwZM7-83" value="&amp;lt;&amp;lt;Extend&amp;gt;&amp;gt;" style="text;align=center;fontStyle=0;verticalAlign=middle;spacingLeft=3;spacingRight=3;strokeColor=none;rotatable=0;points=[[0,0.5],[1,0.5]];portConstraint=eastwest;html=1;" vertex="1" parent="1">
          <mxGeometry x="510" y="470" width="80" height="26" as="geometry" />
        </mxCell>
        <mxCell id="4cYH0kskli7POFGjwZM7-84" value="&amp;lt;&amp;lt;Extend&amp;gt;&amp;gt;" style="text;align=center;fontStyle=0;verticalAlign=middle;spacingLeft=3;spacingRight=3;strokeColor=none;rotatable=0;points=[[0,0.5],[1,0.5]];portConstraint=eastwest;html=1;" vertex="1" parent="1">
          <mxGeometry x="430" y="630" width="80" height="26" as="geometry" />
        </mxCell>
        <mxCell id="4cYH0kskli7POFGjwZM7-85" value="" style="endArrow=block;dashed=1;endFill=0;endSize=12;html=1;rounded=0;entryX=0;entryY=0;entryDx=0;entryDy=0;exitX=1;exitY=1;exitDx=0;exitDy=0;" edge="1" parent="1" source="4cYH0kskli7POFGjwZM7-47" target="4cYH0kskli7POFGjwZM7-66">
          <mxGeometry width="160" relative="1" as="geometry">
            <mxPoint x="435" y="680" as="sourcePoint" />
            <mxPoint x="435" y="480" as="targetPoint" />
          </mxGeometry>
        </mxCell>
        <mxCell id="4cYH0kskli7POFGjwZM7-86" value="&amp;lt;&amp;lt;Include&amp;gt;&amp;gt;" style="text;align=center;fontStyle=0;verticalAlign=middle;spacingLeft=3;spacingRight=3;strokeColor=none;rotatable=0;points=[[0,0.5],[1,0.5]];portConstraint=eastwest;html=1;" vertex="1" parent="1">
          <mxGeometry x="260" y="550" width="80" height="26" as="geometry" />
        </mxCell>
      </root>
    </mxGraphModel>
  </diagram>
</mxfile>
